<?xml version="1.0" encoding="UTF-8"?>
<!DOCTYPE svg PUBLIC "-//W3C//DTD SVG 1.1//EN" "http://www.w3.org/Graphics/SVG/1.1/DTD/svg11.dtd">
<svg xmlns="http://www.w3.org/2000/svg" version="1.1" width="135px" height="69px" style="shape-rendering:geometricPrecision; text-rendering:geometricPrecision; image-rendering:optimizeQuality; fill-rule:evenodd; clip-rule:evenodd" xmlns:xlink="http://www.w3.org/1999/xlink">
<g><path style="opacity:1" fill="#11b981" d="M 46.5,55.5 C 48.1042,54.713 48.7709,53.3797 48.5,51.5C 49.8734,51.6567 51.2068,51.49 52.5,51C 51.572,50.6121 50.9054,49.9454 50.5,49C 54.2701,40.2999 57.6035,31.4665 60.5,22.5C 62.4484,20.6796 63.4484,18.3462 63.5,15.5C 65.4484,13.6796 66.4484,11.3462 66.5,8.5C 67.9473,7.37781 68.9473,5.87781 69.5,4C 73.2113,3.17473 76.878,3.3414 80.5,4.5C 71.9287,23.6367 63.9287,42.97 56.5,62.5C 52.4862,62.6655 48.4862,62.4988 44.5,62C 45.6687,59.9935 46.3354,57.8268 46.5,55.5 Z"/></g>
<g><path style="opacity:0.094" fill="#e7e7eb" d="M 41.5,14.5 C 41.56,13.9569 41.8933,13.6236 42.5,13.5C 43.8077,17.3147 43.8077,20.9813 42.5,24.5C 42.8128,20.9581 42.4794,17.6248 41.5,14.5 Z"/></g>
<g><path style="opacity:0.408" fill="#aad6c7" d="M 66.5,8.5 C 66.4484,11.3462 65.4484,13.6796 63.5,15.5C 63.9348,12.8427 64.9348,10.5093 66.5,8.5 Z"/></g>
<g><path style="opacity:1" fill="#7371ee" d="M 41.5,14.5 C 42.4794,17.6248 42.8128,20.9581 42.5,24.5C 34.5786,27.3627 26.5786,30.0294 18.5,32.5C 17.9569,32.56 17.6236,32.8933 17.5,33.5C 18.325,34.3857 19.325,34.719 20.5,34.5C 20.8333,34.5 21.1667,34.5 21.5,34.5C 22.6354,36.2132 24.302,36.8799 26.5,36.5C 26.8333,36.5 27.1667,36.5 27.5,36.5C 28.6354,38.2132 30.302,38.8799 32.5,38.5C 32.8333,38.5 33.1667,38.5 33.5,38.5C 34.6354,40.2132 36.302,40.8799 38.5,40.5C 39.9587,40.4326 41.2921,40.7659 42.5,41.5C 42.8128,45.0419 42.4794,48.3752 41.5,51.5C 30.0833,47.3035 18.75,42.8035 7.5,38C 6.16667,34.6667 6.16667,31.3333 7.5,28C 18.75,23.1965 30.0833,18.6965 41.5,14.5 Z"/></g>
<g><path style="opacity:0.408" fill="#acd7c8" d="M 63.5,15.5 C 63.4484,18.3462 62.4484,20.6796 60.5,22.5C 60.9348,19.8427 61.9348,17.5093 63.5,15.5 Z"/></g>
<g><path style="opacity:0.773" fill="#b4b2e7" d="M 18.5,32.5 C 19.1667,33.1667 19.8333,33.8333 20.5,34.5C 19.325,34.719 18.325,34.3857 17.5,33.5C 17.6236,32.8933 17.9569,32.56 18.5,32.5 Z"/></g>
<g><path style="opacity:0.773" fill="#a9a6e6" d="M 21.5,34.5 C 23.403,34.7959 25.0697,35.4625 26.5,36.5C 24.302,36.8799 22.6354,36.2132 21.5,34.5 Z"/></g>
<g><path style="opacity:0.757" fill="#aba8e6" d="M 27.5,36.5 C 29.403,36.7959 31.0697,37.4625 32.5,38.5C 30.302,38.8799 28.6354,38.2132 27.5,36.5 Z"/></g>
<g><path style="opacity:0.361" fill="#a3d7c5" d="M 46.5,55.5 C 46.3354,57.8268 45.6687,59.9935 44.5,62C 48.4862,62.4988 52.4862,62.6655 56.5,62.5C 63.9287,42.97 71.9287,23.6367 80.5,4.5C 76.878,3.3414 73.2113,3.17473 69.5,4C 68.9473,5.87781 67.9473,7.37781 66.5,8.5C 66.8693,6.55879 67.536,4.72546 68.5,3C 73.202,2.17169 77.8687,2.33836 82.5,3.5C 73.5958,23.3027 65.2624,43.3027 57.5,63.5C 52.4889,63.6659 47.4889,63.4993 42.5,63C 43.7525,60.3673 45.0858,57.8673 46.5,55.5 Z"/></g>
<g><path style="opacity:0.6" fill="#9cd8c2" d="M 89.5,15.5 C 101.555,19.9639 113.555,24.6306 125.5,29.5C 126.487,32.7683 126.82,36.1016 126.5,39.5C 114.457,43.9606 102.457,48.6273 90.5,53.5C 89.2086,49.9553 89.2086,46.4553 90.5,43C 98.3634,39.9344 106.363,37.2678 114.5,35C 106.611,31.8133 98.611,28.8133 90.5,26C 89.5442,22.6064 89.2108,19.1064 89.5,15.5 Z"/></g>
<g><path style="opacity:1" fill="#0fb880" d="M 90.5,17.5 C 101.954,21.4306 113.287,25.7639 124.5,30.5C 125.48,33.0865 125.813,35.7531 125.5,38.5C 113.911,43.03 102.244,47.3633 90.5,51.5C 90.2317,48.8806 90.565,46.3806 91.5,44C 99.3005,40.7883 107.3,38.2883 115.5,36.5C 115.67,35.1779 115.337,34.0113 114.5,33C 106.758,30.5306 99.0916,27.8639 91.5,25C 90.565,22.6194 90.2317,20.1194 90.5,17.5 Z"/></g>
<g><path style="opacity:0.757" fill="#adaae7" d="M 33.5,38.5 C 35.403,38.7959 37.0697,39.4625 38.5,40.5C 36.302,40.8799 34.6354,40.2132 33.5,38.5 Z"/></g>
<g><path style="opacity:0.447" fill="#9ad3bf" d="M 60.5,22.5 C 57.6035,31.4665 54.2701,40.2999 50.5,49C 50.9054,49.9454 51.572,50.6121 52.5,51C 51.2068,51.49 49.8734,51.6567 48.5,51.5C 48.7709,53.3797 48.1042,54.713 46.5,55.5C 50.7958,44.26 55.4625,33.26 60.5,22.5 Z"/></g>
<g><path style="opacity:0.094" fill="#e7e7eb" d="M 42.5,41.5 C 43.8077,45.0187 43.8077,48.6853 42.5,52.5C 41.8933,52.3764 41.56,52.0431 41.5,51.5C 42.4794,48.3752 42.8128,45.0419 42.5,41.5 Z"/></g>
</svg>
